<svg width="24" height="24" viewBox="0 0 24 24" fill="none" xmlns="http://www.w3.org/2000/svg">
<path d="M8.99999 16.1701L5.52999 12.7001C5.34302 12.5131 5.08942 12.4081 4.82499 12.4081C4.56057 12.4081 4.30697 12.5131 4.11999 12.7001C3.93302 12.8871 3.82797 13.1407 3.82797 13.4051C3.82797 13.536 3.85376 13.6657 3.90387 13.7866C3.95397 13.9076 4.02741 14.0175 4.11999 14.1101L8.29999 18.2901C8.68999 18.6801 9.31999 18.6801 9.70999 18.2901L20.29 7.71008C20.477 7.5231 20.582 7.2695 20.582 7.00508C20.582 6.74065 20.477 6.48706 20.29 6.30008C20.103 6.1131 19.8494 6.00806 19.585 6.00806C19.3206 6.00806 19.067 6.1131 18.88 6.30008L8.99999 16.1701Z" fill="#9D9D9F"/>
</svg>
