<svg width="147" height="147" viewBox="0 0 147 147" fill="none" xmlns="http://www.w3.org/2000/svg">
<path d="M73.5 12.25C107.328 12.25 134.75 39.6716 134.75 73.5C134.75 107.328 107.328 134.75 73.5 134.75C63.5911 134.763 53.8282 132.362 45.0555 127.755L18.7792 134.597C17.9013 134.826 16.9788 134.821 16.1032 134.583C15.2276 134.345 14.4293 133.883 13.7875 133.242C13.1456 132.601 12.6825 131.803 12.444 130.927C12.2054 130.052 12.1998 129.13 12.4276 128.251L19.2631 101.981C14.6439 93.1991 12.2366 83.4228 12.25 73.5C12.25 39.6716 39.6716 12.25 73.5 12.25Z" fill="url(#paint0_linear_22_57)"/>
<path d="M102.812 73.5586C95.2067 74.0256 88.0341 77.2576 82.6459 82.6459C77.2576 88.0341 74.0256 95.2067 73.5586 102.812H73.4414C72.9753 95.2064 69.7435 88.0333 64.3551 82.6449C58.9667 77.2565 51.7936 74.0247 44.1875 73.5586V73.4414C51.7936 72.9753 58.9667 69.7435 64.3551 64.3551C69.7435 58.9667 72.9753 51.7936 73.4414 44.1875H73.5586C74.0256 51.7933 77.2576 58.9659 82.6459 64.3541C88.0341 69.7424 95.2067 72.9744 102.812 73.4414V73.5586Z" fill="white"/>
<defs>
<linearGradient id="paint0_linear_22_57" x1="16.6232" y1="35.2249" x2="123.59" y2="217.566" gradientUnits="userSpaceOnUse">
<stop stop-color="#D45671"/>
<stop offset="1" stop-color="#448AFF"/>
</linearGradient>
</defs>
</svg>
