<svg width="147" height="147" viewBox="0 0 147 147" fill="none" xmlns="http://www.w3.org/2000/svg">
<path d="M73.5 12.25C107.328 12.25 134.75 39.6716 134.75 73.5C134.75 107.328 107.328 134.75 73.5 134.75C63.5911 134.763 53.8282 132.362 45.0555 127.755L18.7792 134.597C17.9013 134.826 16.9788 134.821 16.1032 134.583C15.2276 134.345 14.4293 133.883 13.7875 133.242C13.1456 132.601 12.6825 131.803 12.444 130.927C12.2054 130.052 12.1998 129.13 12.4276 128.251L19.2631 101.981C14.6439 93.1991 12.2366 83.4228 12.25 73.5C12.25 39.6716 39.6716 12.25 73.5 12.25Z" fill="url(#paint0_linear_22_53)"/>
<path d="M81.1685 79.625H53.5937L52.969 79.6679C51.8695 79.8192 50.8619 80.3634 50.1326 81.2C49.4032 82.0365 49.0014 83.1089 49.0014 84.2188C49.0014 85.3286 49.4032 86.401 50.1326 87.2375C50.8619 88.0741 51.8695 88.6183 52.969 88.7696L53.5937 88.8125H81.1685L81.7871 88.7696C82.8866 88.6183 83.8942 88.0741 84.6235 87.2375C85.3529 86.401 85.7547 85.3286 85.7547 84.2188C85.7547 83.1089 85.3529 82.0365 84.6235 81.2C83.8942 80.3634 82.8866 79.8192 81.7871 79.6679L81.1685 79.625ZM93.4062 58.1875H53.5937L52.969 58.2304C51.8695 58.3817 50.8619 58.9259 50.1326 59.7625C49.4032 60.599 49.0014 61.6714 49.0014 62.7812C49.0014 63.8911 49.4032 64.9635 50.1326 65.8C50.8619 66.6366 51.8695 67.1808 52.969 67.3321L53.5937 67.375H93.4062L94.031 67.3321C95.1305 67.1808 96.1381 66.6366 96.8674 65.8C97.5968 64.9635 97.9986 63.8911 97.9986 62.7812C97.9986 61.6714 97.5968 60.599 96.8674 59.7625C96.1381 58.9259 95.1305 58.3817 94.031 58.2304L93.4062 58.1875Z" fill="url(#paint1_linear_22_53)"/>
<defs>
<linearGradient id="paint0_linear_22_53" x1="16.6232" y1="35.2249" x2="123.59" y2="217.566" gradientUnits="userSpaceOnUse">
<stop stop-color="#0FAFFF"/>
<stop offset="1" stop-color="#CC23D1"/>
</linearGradient>
<linearGradient id="paint1_linear_22_53" x1="53.2875" y1="58.7265" x2="56.5154" y2="92.0281" gradientUnits="userSpaceOnUse">
<stop stop-color="#FDFDFD"/>
<stop offset="1" stop-color="#CCEAFF"/>
</linearGradient>
</defs>
</svg>
