<svg width="256" height="107" viewBox="0 0 256 107" fill="none" xmlns="http://www.w3.org/2000/svg">
<g clip-path="url(#clip0_49_65)">
<path d="M256 55.04C256 36.8355 247.182 22.471 230.329 22.471C213.404 22.471 203.164 36.836 203.164 54.898C203.164 76.302 215.254 87.111 232.604 87.111C241.067 87.111 247.467 85.191 252.302 82.489V68.2665C247.467 70.6845 241.92 72.178 234.88 72.178C227.982 72.178 221.867 69.76 221.085 61.369H255.858C255.858 60.444 256 56.7465 256 55.04ZM220.871 48.2845C220.871 40.249 225.778 36.9065 230.258 36.9065C234.595 36.9065 239.218 40.249 239.218 48.2845H220.871ZM175.716 22.471C168.747 22.471 164.266 25.742 161.778 28.018L160.853 23.609H145.209V106.524L162.986 102.756L163.058 82.631C165.618 84.48 169.387 87.111 175.645 87.111C188.374 87.111 199.964 76.871 199.964 54.329C199.893 33.7065 188.16 22.471 175.715 22.471M171.449 71.4665C167.253 71.4665 164.763 69.9735 163.057 68.1245L162.986 41.742C164.835 39.68 167.395 38.258 171.449 38.258C177.92 38.258 182.4 45.511 182.4 54.8265C182.4 64.3555 177.991 71.4665 171.449 71.4665ZM120.746 18.2755L138.596 14.4355V0L120.746 3.769V18.2755ZM120.746 23.68H138.596V85.902H120.746V23.68ZM101.618 28.942L100.48 23.68H85.12V85.902H102.898V43.7335C107.093 38.258 114.204 39.2535 116.409 40.0355V23.68C114.133 22.8265 105.813 21.262 101.618 28.942ZM66.062 8.249L48.711 11.9465L48.64 68.9065C48.64 79.4315 56.5335 87.182 67.058 87.182C72.889 87.182 77.1555 86.1155 79.502 84.8355V70.4C77.227 71.3245 65.991 74.5955 65.991 64.071V38.8265H79.502V23.68H65.991L66.062 8.249ZM17.991 41.742C17.991 38.969 20.2665 37.902 24.036 37.902C29.44 37.902 36.2665 39.538 41.671 42.4535V25.742C35.769 23.3955 29.938 22.471 24.036 22.471C9.6 22.471 0 30.009 0 42.596C0 62.222 27.022 59.0935 27.022 67.556C27.022 70.8265 24.178 71.8935 20.1955 71.8935C14.2935 71.8935 6.7555 69.4755 0.782 66.2045V83.129C7.3955 85.9735 14.08 87.182 20.1955 87.182C34.9865 87.182 45.1555 79.858 45.1555 67.129C45.0845 45.938 17.991 49.7065 17.991 41.742Z" fill="#635BFF"/>
</g>
<defs>
<clipPath id="clip0_49_65">
<rect width="256" height="107" fill="white"/>
</clipPath>
</defs>
</svg>
